# xmcd
#
# Track frame offsets:
#	150
#	20978
#	29918
#	49099
#	67912
#	76832
#	89248
#	120032
#	138844
#	162587
#	169397
#	178001
#	190635
#	204267
#	216141
#	232928
#	251336
#	268291
#	275399
#	281009
#
# Disc length: 3888 seconds
#
# Revision: 6
# Processed by: cddbd v1.5.2PL0 Copyright (c) Steve Scherf et al.
# Submitted via: audiograbber 1.83.01
#
DISCID=230f2e14
DTITLE=Delibes - The 3 Ballets  (Richard Bonynge)  [CD 1]
DYEAR=1999
DGENRE=Ballet
TTITLE0=Léo Delibes - Coppélia - Act I - Prélude et Mazurka  - National Phiharm
TTITLE0=onic Orchestra 1984
TTITLE1=Léo Delibes - Coppélia - Act I - Valse lente
TTITLE2=Léo Delibes - Coppélia - Act I - Scène
TTITLE3=Léo Delibes - Coppélia - Act I - Mazurka
TTITLE4=Léo Delibes - Coppélia - Act I - Scène
TTITLE5=Léo Delibes - Coppélia - Act I - Ballade de l'épi
TTITLE6=Léo Delibes - Coppélia - Act I - Thème slave varié
TTITLE7=Léo Delibes - Coppélia - Act I - Czárdás (Danse hongroise) - Sortie
TTITLE8=Léo Delibes - Coppélia - Act I - Finale
TTITLE9=Léo Delibes - Coppélia - Act II, Scene 1 - Entr'acte et valse
TTITLE10=Léo Delibes - Coppélia - Act II, Scene 1 - Scène
TTITLE11=Léo Delibes - Coppélia - Act II, Scene 1 - Scène
TTITLE12=Léo Delibes - Coppélia - Act II, Scene 1 - Musique des automates - Scè
TTITLE12=ne
TTITLE13=Léo Delibes - Coppélia - Act II, Scene 1 - Scène
TTITLE14=Léo Delibes - Coppélia - Act II, Scene 1 - Chanson à boire et scène
TTITLE15=Léo Delibes - Coppélia - Act II, Scene 1 - Scène et valse de la poupée
TTITLE16=Léo Delibes - Coppélia - Act II, Scene 1 - Scène
TTITLE17=Léo Delibes - Coppélia - Act II, Scene 1 - Boléro
TTITLE18=Léo Delibes - Coppélia - Act II, Scene 1 - Gigue
TTITLE19=Léo Delibes - Coppélia - Act II, Scene 1 - Scène
EXTD=YEAR: 1999
EXTT0=
EXTT1=
EXTT2=
EXTT3=
EXTT4=
EXTT5=
EXTT6=
EXTT7=
EXTT8=
EXTT9=
EXTT10=
EXTT11=
EXTT12=
EXTT13=
EXTT14=
EXTT15=
EXTT16=
EXTT17=
EXTT18=
EXTT19=
PLAYORDER=
